:version 1.10
:name ASF
:units
  mass 1
  length 1
  angle deg
:documentation
  ASF file generated by Kaydara
:root
  axis xyz
  order  tx ty tz rx ry rz
  position 0 0 0
  orientation 0 0 0
:bonedata
  begin
    id 1
    name lfemurDummy
    direction 0.61522 -0.761478 0.204097
    length 5.68318
    axis 0 -0 0 xyz
  end
  begin
    id 2
    name lfemur
    direction 0.34202 -0.939693 -5.84747e-008
    length 16.9147
    axis 0 -0 20 xyz
    dof rx ry rz
    limits( -inf , inf )
( -inf , inf )
( -inf , inf )

  end
  begin
    id 3
    name ltibia
    direction 0.34202 -0.939693 1.20839e-009
    length 18.0532
    axis 0 -0 20 xyz
    dof rz ry rx
    limits( -inf , inf )
( -inf , inf )
( -inf , inf )

  end
  begin
    id 4
    name lfoot
    direction 0.0841971 -0.23133 0.969225
    length 5.23822
    axis -90 7.62852e-016 20 xyz
    dof ry rx rz
    limits( -inf , inf )
( -inf , inf )
( -inf , inf )

  end
  begin
    id 5
    name ltoes
    direction 0 0 0
    length 0
    axis 0 0 0 xyz
    dof rz ry rx
    limits( -inf , inf )
( -inf , inf )
( -inf , inf )

  end
  begin
    id 6
    name rfemurDummy
    direction -0.625247 -0.75382 0.202044
    length 5.74091
    axis 0 -0 0 xyz
  end
  begin
    id 7
    name rfemur
    direction -0.34202 -0.939693 -1.47013e-008
    length 16.4922
    axis 0 -0 -20 xyz
    dof rx ry rz
    limits( -inf , inf )
( -inf , inf )
( -inf , inf )

  end
  begin
    id 8
    name rtibia
    direction -0.34202 -0.939693 -7.74345e-010
    length 18.2421
    axis 0 -0 -20 xyz
    dof rz ry rx
    limits( -inf , inf )
( -inf , inf )
( -inf , inf )

  end
  begin
    id 9
    name rfoot
    direction -0.124331 -0.341598 0.931586
    length 5.45787
    axis -90 -7.62852e-016 -20 xyz
    dof ry rx rz
    limits( -inf , inf )
( -inf , inf )
( -inf , inf )

  end
  begin
    id 10
    name rtoes
    direction 0 0 0
    length 0
    axis 0 0 0 xyz
    dof rz ry rx
    limits( -inf , inf )
( -inf , inf )
( -inf , inf )

  end
  begin
    id 11
    name lowerbackDummy
    direction 0 0 0
    length 0
    axis 0 -0 0 xyz
  end
  begin
    id 12
    name lowerback
    direction -0.0218484 0.994884 -0.0986304
    length 4.45607
    axis 0 -0 0 xyz
    dof rx ry rz
    limits( -inf , inf )
( -inf , inf )
( -inf , inf )

  end
  begin
    id 13
    name upperback
    direction -0.00973057 0.999717 -0.0217111
    length 4.47449
    axis 0 -0 0 xyz
    dof rx ry rz
    limits( -inf , inf )
( -inf , inf )
( -inf , inf )

  end
  begin
    id 14
    name thorax
    direction -0.000928171 0.999699 0.0245198
    length 4.50973
    axis 0 -0 0 xyz
    dof rx ry rz
    limits( -inf , inf )
( -inf , inf )
( -inf , inf )

  end
  begin
    id 15
    name rclavicle
    direction -0.9009 0.425937 -0.0834055
    length 7.28587
    axis 0 -0 0 xyz
    dof rx ry rz
    limits( -inf , inf )
( -inf , inf )
( -inf , inf )

  end
  begin
    id 16
    name rhumerus
    direction -1 -2.23604e-007 -1.42637e-007
    length 13.5704
    axis 180 30 90 xyz
    dof rx ry rz
    limits( -inf , inf )
( -inf , inf )
( -inf , inf )

  end
  begin
    id 17
    name rradius
    direction -1 5.68281e-008 -4.4952e-007
    length 8.06782
    axis 180 30 90 xyz
    dof rz ry rx
    limits( -inf , inf )
( -inf , inf )
( -inf , inf )

  end
  begin
    id 18
    name rwrist
    direction -1 1.51393e-007 1.38143e-007
    length 4.03391
    axis -90 -90 0 xyz
    dof rz rx ry
    limits( -inf , inf )
( -inf , inf )
( -inf , inf )

  end
  begin
    id 19
    name rthumb
    direction 0 0 0
    length 0
    axis 0 0 0 xyz
    dof ry rx rz
    limits( -inf , inf )
( -inf , inf )
( -inf , inf )

  end
  begin
    id 20
    name rhand
    direction -1 -3.34077e-007 -5.59631e-007
    length 1.29744
    axis -90 -90 0 xyz
    dof ry rx rz
    limits( -inf , inf )
( -inf , inf )
( -inf , inf )

  end
  begin
    id 21
    name rfingers
    direction 0 0 0
    length 0
    axis 0 0 0 xyz
    dof rz ry rx
    limits( -inf , inf )
( -inf , inf )
( -inf , inf )

  end
  begin
    id 22
    name lclavicle
    direction 0.940017 0.332249 -0.0773232
    length 8.29589
    axis 0 -0 0 xyz
    dof rx ry rz
    limits( -inf , inf )
( -inf , inf )
( -inf , inf )

  end
  begin
    id 23
    name lhumerus
    direction 1 7.41158e-008 -1.44768e-008
    length 12.0042
    axis 180 -30 -90 xyz
    dof rx ry rz
    limits( -inf , inf )
( -inf , inf )
( -inf , inf )

  end
  begin
    id 24
    name lradius
    direction 1 -1.32972e-007 3.10821e-007
    length 8.1902
    axis 180 -30 -90 xyz
    dof rz ry rx
    limits( -inf , inf )
( -inf , inf )
( -inf , inf )

  end
  begin
    id 25
    name lwrist
    direction 1 3.08957e-007 4.01394e-007
    length 4.09509
    axis -90 90 0 xyz
    dof rz rx ry
    limits( -inf , inf )
( -inf , inf )
( -inf , inf )

  end
  begin
    id 26
    name lthumb
    direction 0 0 0
    length 0
    axis 0 0 0 xyz
    dof ry rx rz
    limits( -inf , inf )
( -inf , inf )
( -inf , inf )

  end
  begin
    id 27
    name lhand
    direction 1 -1.64125e-007 -6.99514e-007
    length 1.37229
    axis -90 90 0 xyz
    dof ry rx rz
    limits( -inf , inf )
( -inf , inf )
( -inf , inf )

  end
  begin
    id 28
    name lfingers
    direction 0 0 0
    length 0
    axis 0 0 0 xyz
    dof rz ry rx
    limits( -inf , inf )
( -inf , inf )
( -inf , inf )

  end
  begin
    id 29
    name lowerneck
    direction -0.030798 0.998024 0.0547665
    length 3.93918
    axis 0 -0 0 xyz
    dof rx ry rz
    limits( -inf , inf )
( -inf , inf )
( -inf , inf )

  end
  begin
    id 30
    name upperneck
    direction 0.0531588 0.996611 -0.0627736
    length 3.95491
    axis 0 -0 0 xyz
    dof rx ry rz
    limits( -inf , inf )
( -inf , inf )
( -inf , inf )

  end
  begin
    id 31
    name head
    direction 0 0 0
    length 0
    axis 0 0 0 xyz
    dof rx ry rz
    limits( -inf , inf )
( -inf , inf )
( -inf , inf )

  end
:hierarchy
  begin
    root lfemurDummy rfemurDummy lowerbackDummy
    lfemurDummy lfemur
    lfemur ltibia
    ltibia lfoot
    lfoot ltoes
    rfemurDummy rfemur
    rfemur rtibia
    rtibia rfoot
    rfoot rtoes
    lowerbackDummy lowerback
    lowerback upperback
    upperback thorax
    thorax rclavicle lclavicle lowerneck
    rclavicle rhumerus
    rhumerus rradius
    rradius rwrist
    rwrist rthumb rhand
    rhand rfingers
    lclavicle lhumerus
    lhumerus lradius
    lradius lwrist
    lwrist lthumb lhand
    lhand lfingers
    lowerneck upperneck
    upperneck head
  end

:SAMPLES-PER-SECOND 30
:FULLY-SPECIFIED
:DEGREES
117
root  1.980359911 34.78577681 0.4039133158 153.4279785 -70.39289856 -179.3029785
lowerback  0.8954139948 5.321290016 2.776279926
upperback  -0.08979280293 7.1083498 -1.683680058
thorax  -0.04108979926 3.550659895 -3.301759958
lowerneck  -10.70730019 9.193860054 -1.97239995
upperneck  29.65449905 10.40170002 9.271909714
head  10.59589958 5.365660191 4.82986021
lclavicle  0 -9.442270133e-015 7.951389973e-016
lhumerus  -1.766909957 -16.29470062 84.28510284
lradius  1.825685099e-031 -3.022535021e-031 121.1330032
lwrist  -7.062250077e-031 1.765562519e-031 12.97019958
lhand  -1.496451383e-031 -27.76390076 20.11240005
lfingers  90 7.125020027 -90
lthumb  89.89689403 5.08795885 91.16245106
rclavicle  0 -9.442270133e-015 7.951389973e-016
rhumerus  2.095340014 24.71509933 -86.19219971
rradius  -1.509611077e-031 3.192165164e-031 115.3099976
rwrist  0 -0 -9.289879799
rhand  -7.920061211e-032 -33.2840004 9.303460121
rfingers  -90 -7.125020027 -90
rthumb  -92.93752616 -24.25625642 -97.11982154
rfemur  16.74349976 8.485030174 12.03600025
rtibia  -0 0 69.4681015
rfoot  -0 -22.02879906 -19.95540047
rtoes  5.373923086 19.29304026 -105.8922705
lfemur  -6.091829777 -6.820129871 5.415820122
ltibia  -0 0 68.94000244
lfoot  -0 -6.163459778 -17.1678009
ltoes  -4.250644065 -19.5611806 -102.515957
118
root  1.793237746 34.76355545 0.4020533224 151.3200073 -70.46379852 -177.8469849
lowerback  0.7230830193 5.309639931 3.085860014
upperback  -0.261424005 7.092309952 -1.705850005
thorax  -0.08248350024 3.539279938 -3.485820055
lowerneck  -10.32520008 9.281949997 -1.379490018
upperneck  29.63660049 10.52840042 8.789560318
head  10.58390045 5.420499802 4.554679871
lclavicle  0 -9.442270133e-015 7.951389973e-016
lhumerus  -1.188860059 -15.99559975 84.13400269
lradius  1.842274406e-031 -3.012452332e-031 121.447998
lwrist  -1.412450015e-030 -1.765562519e-031 12.84029961
lhand  -1.496451383e-031 -27.76390076 20.11240005
lfingers  90 7.125020027 -90
lthumb  89.89689403 5.08795885 91.16245106
rclavicle  0 -9.442270133e-015 7.951389973e-016
rhumerus  2.803960085 24.46209908 -86.30500031
rradius  -1.540183809e-031 3.177527006e-031 115.8600006
rwrist  7.062250077e-031 -0 -8.598210335
rhand  -7.920061211e-032 -33.2840004 9.303460121
rfingers  -90 -7.125020027 -90
rthumb  -92.93752616 -24.25625642 -97.11982154
rfemur  17.15169907 7.770060062 12.08549976
rtibia  -0 0 69.83059692
rfoot  -0 -21.36020088 -19.81229973
rtoes  5.373923086 19.29304026 -105.8922705
lfemur  -6.078129768 -7.603750229 6.055170059
ltibia  -0 0 69.60050201
lfoot  -0 -3.784729958 -18.68079948
ltoes  -4.250644065 -19.5611806 -102.515957
119
root  1.644913418 34.73066796 0.4072222184 149.1669922 -70.34329987 -176.1309814
lowerback  0.5991050005 5.34800005 3.457000017
upperback  -0.4708499908 7.145359993 -1.658290029
thorax  -0.1854179949 3.560070038 -3.639090061
lowerneck  -9.850179672 9.419369698 -0.4678489864
upperneck  29.55410004 10.7258997 8.083990097
head  10.56729984 5.516280174 4.15155983
lclavicle  0 -9.442270133e-015 7.951389973e-016
lhumerus  -0.4853569865 -15.85610008 83.79850006
lradius  1.865667746e-031 -2.998020663e-031 121.8939972
lwrist  -7.062250077e-031 -1.765562519e-031 12.99870014
lhand  -1.496451383e-031 -27.76390076 20.11240005
lfingers  90 7.125020027 -90
lthumb  89.89689403 5.08795885 91.16245106
rclavicle  0 -9.442270133e-015 7.951389973e-016
rhumerus  3.547580004 24.25469971 -86.19229889
rradius  -1.578613063e-031 3.158611219e-031 116.5550003
rwrist  7.062250077e-031 -1.765562519e-031 -7.774260044
rhand  -7.920061211e-032 -33.2840004 9.303460121
rfingers  -90 -7.125020027 -90
rthumb  -92.93752616 -24.25625642 -97.11982154
rfemur  17.29120064 7.125430107 12.32610035
rtibia  -0 0 70.13790131
rfoot  -0 -21.11610031 -19.87389946
rtoes  5.373923086 19.29304026 -105.8922705
lfemur  -6.237130165 -8.314350128 6.942649841
ltibia  -0 0 70.09190369
lfoot  -0 -0.8667929769 -20.58869934
ltoes  -4.250644065 -19.5611806 -102.515957
120
root  1.529097745 34.6948879 0.4158510937 147.7949829 -70.21630096 -175.0640259
lowerback  0.5566380024 5.397379875 3.542249918
upperback  -0.669095993 7.210780144 -1.649049997
thorax  -0.3507190049 3.58513999 -3.683449984
lowerneck  -9.765040398 9.470589638 -0.2856819928
upperneck  29.6019001 10.77970028 8.023539543
head  10.58380032 5.54968977 4.105279922
lclavicle  0 -9.442270133e-015 7.951389973e-016
lhumerus  0.3872849941 -15.67249966 83.14459991
lradius  1.898623384e-031 -2.977259358e-031 122.526001
lwrist  -7.062250077e-031 -1.765562519e-031 13.7013998
lhand  -1.496451383e-031 -27.76390076 20.11240005
lfingers  90 7.125020027 -90
lthumb  89.89689403 5.08795885 91.16245106
rclavicle  0 -9.442270133e-015 7.951389973e-016
rhumerus  4.403749943 24.07559967 -86.04450226
rradius  -1.624585147e-031 3.13521405e-031 117.3919983
rwrist  7.062250077e-031 -1.765562519e-031 -7.06471014
rhand  -7.920061211e-032 -33.2840004 9.303460121
rfingers  -90 -7.125020027 -90
rthumb  -92.93752616 -24.25625642 -97.11982154
rfemur  17.25629997 6.645400047 12.42870045
rtibia  -0 0 70.42539978
rfoot  -0 -21.30900002 -20.19779968
rtoes  5.373923086 19.29304026 -105.8922705
lfemur  -6.531209946 -9.079489708 7.578239918
ltibia  -0 0 70.44300079
lfoot  -0 2.344710112 -22.45529938
ltoes  -4.250644065 -19.5611806 -102.515957
121
root  1.440453342 34.64777789 0.422124459 147.0170288 -70.18800354 -174.4849854
lowerback  0.5434110165 5.425000191 3.418950081
upperback  -0.8005920053 7.24326992 -1.736479998
thorax  -0.4794700146 3.595679998 -3.712090015
lowerneck  -10.07979965 9.433979988 -0.85769099
upperneck  29.66340065 10.68360043 8.65089035
head  10.58549976 5.52466011 4.426290035
lclavicle  0 -9.442270133e-015 7.951389973e-016
lhumerus  1.158869982 -15.52970028 82.72049713
lradius  1.939698298e-031 -2.950663409e-031 123.3199997
lwrist  -1.412450015e-030 -0 13.89799976
lhand  -1.496451383e-031 -27.76390076 20.11240005
lfingers  90 7.125020027 -90
lthumb  89.89689403 5.08795885 91.16245106
rclavicle  0 -9.442270133e-015 7.951389973e-016
rhumerus  5.488399982 23.84639931 -85.84069824
rradius  -1.675529866e-031 3.108286297e-031 118.3270035
rwrist  7.062250077e-031 -1.765562519e-031 -6.721310139
rhand  -7.920061211e-032 -33.2840004 9.303460121
rfingers  -90 -7.125020027 -90
rthumb  -92.93752616 -24.25625642 -97.11982154
rfemur  17.10810089 6.122799873 12.26570034
rtibia  -0 0 70.73320007
rfoot  -0 -21.52300072 -20.82939911
rtoes  5.373923086 19.29304026 -105.8922705
lfemur  -6.972670078 -9.731889725 8.045249939
ltibia  -0 0 70.6835022
lfoot  -0 5.715929985 -23.96949959
ltoes  -4.250644065 -19.5611806 -102.515957
122
root  1.370611153 34.58377808 0.4233400183 146.9639893 -70.32510376 -174.5390015
lowerback  0.5183870196 5.438240051 2.91376996
upperback  -0.8790720105 7.249710083 -1.835150003
thorax  -0.5946850181 3.595829964 -3.540179968
lowerneck  -10.14220047 9.42263031 -1.148599982
upperneck  29.39889908 10.70219994 8.839529991
head  10.46240044 5.536290169 4.52507019
lclavicle  0 -9.442270133e-015 7.951389973e-016
lhumerus  1.697550058 -15.4968996 82.79250336
lradius  1.983716171e-031 -2.921252161e-031 124.1790009
lwrist  -1.412450015e-030 -0 13.23670006
lhand  -1.496451383e-031 -27.76390076 20.11240005
lfingers  90 7.125020027 -90
lthumb  89.89689403 5.08795885 91.16245106
rclavicle  0 -9.442270133e-015 7.951389973e-016
rhumerus  6.592780113 23.69389915 -85.48130035
rradius  -1.728070793e-031 3.079385551e-031 119.3000031
rwrist  7.062250077e-031 -1.765562519e-031 -6.449090004
rhand  -7.920061211e-032 -33.2840004 9.303460121
rfingers  -90 -7.125020027 -90
rthumb  -92.93752616 -24.25625642 -97.11982154
rfemur  16.90270042 5.500289917 11.71389961
rtibia  -0 0 71.06759644
rfoot  -0 -21.72680092 -21.2852993
rtoes  5.373923086 19.29304026 -105.8922705
lfemur  -7.491449833 -10.2507 8.236060143
ltibia  -0 0 70.80079651
lfoot  -0 8.627539635 -25.05190086
ltoes  -4.250644065 -19.5611806 -102.515957
123
root  1.308522262 34.52066737 0.434268882 147.3120117 -70.49160004 -174.9249878
lowerback  0.5938339829 5.509260178 2.36093998
upperback  -0.9687669873 7.331989765 -1.986600041
thorax  -0.7708740234 3.632920027 -3.407239914
lowerneck  -9.9187603 9.419540405 -0.9205139875
upperneck  29.00690079 10.72739983 8.628760338
head  10.30449963 5.555970192 4.379340172
lclavicle  0 -9.442270133e-015 7.951389973e-016
lhumerus  2.331459999 -15.52190018 82.74669647
lradius  2.021379824e-031 -2.895318228e-031 124.9209976
lwrist  -1.412450015e-030 -1.765562519e-031 12.68770027
lhand  -1.496451383e-031 -27.76390076 20.11240005
lfingers  90 7.125020027 -90
lthumb  89.89689403 5.08795885 91.16245106
rclavicle  0 -9.442270133e-015 7.951389973e-016
rhumerus  7.595650196 23.49239922 -84.99859619
rradius  -1.783412124e-031 3.04766882e-031 120.3349991
rwrist  1.412450015e-030 -1.765562519e-031 -6.463220119
rhand  -7.920061211e-032 -33.2840004 9.303460121
rfingers  -90 -7.125020027 -90
rthumb  -92.93752616 -24.25625642 -97.11982154
rfemur  16.69039917 4.927010059 10.96850014
rtibia  -0 0 71.38089752
rfoot  -0 -22.03689957 -21.32119942
rtoes  5.373923086 19.29304026 -105.8922705
lfemur  -8.044159889 -10.61250019 8.265769958
ltibia  -0 0 70.82170105
lfoot  -0 10.08189964 -25.91959953
ltoes  -4.250644065 -19.5611806 -102.515957
124
root  1.256793315 34.44666525 0.4666822163 146.9260254 -70.56469727 -174.4949951
lowerback  0.8320119977 5.504590034 2.208060026
upperback  -1.033390045 7.324979782 -2.027889967
thorax  -0.9842090011 3.625040054 -3.396430016
lowerneck  -9.792460442 9.480660439 -0.7420039773
upperneck  28.74510002 10.85029984 8.419610023
head  10.20489979 5.612889767 4.266910076
lclavicle  0 -9.442270133e-015 7.951389973e-016
lhumerus  3.002899885 -15.3434 82.68309784
lradius  2.054345966e-031 -2.87202136e-031 125.5759964
lwrist  -7.062250077e-031 1.765562519e-031 12.2840004
lhand  -1.496451383e-031 -27.76390076 20.11240005
lfingers  90 7.125020027 -90
lthumb  89.89689403 5.08795885 91.16245106
rclavicle  0 -9.442270133e-015 7.951389973e-016
rhumerus  8.611189842 23.48579979 -84.40509796
rradius  -1.843798874e-031 3.011519509e-031 121.4769974
rwrist  1.412450015e-030 -0 -6.894609928
rhand  -7.920061211e-032 -33.2840004 9.303460121
rfingers  -90 -7.125020027 -90
rthumb  -92.93752616 -24.25625642 -97.11982154
rfemur  16.54529953 4.368939877 10.58850002
rtibia  -0 0 71.62660217
rfoot  -0 -22.22310066 -21.41580009
rtoes  5.373923086 19.29304026 -105.8922705
lfemur  -8.639479637 -10.89949989 8.640130043
ltibia  -0 0 70.76899719
lfoot  -0 10.46140003 -26.57760048
ltoes  -4.250644065 -19.5611806 -102.515957
